<svg width="136" height="128" viewBox="0 0 136 128" fill="none" xmlns="http://www.w3.org/2000/svg">
<ellipse cx="63" cy="64" rx="63" ry="64" fill="#5C5A5A"/>
<g clip-path="url(#clip0_41_66)">
<path d="M53.0098 51.5C53.0098 53.4891 52.2196 55.3968 50.8131 56.8033C49.4065 58.2098 47.4989 59 45.5098 59C43.5206 59 41.613 58.2098 40.2065 56.8033C38.7999 55.3968 38.0098 53.4891 38.0098 51.5C38.0098 49.5109 38.7999 47.6032 40.2065 46.1967C41.613 44.7902 43.5206 44 45.5098 44C47.4989 44 49.4065 44.7902 50.8131 46.1967C52.2196 47.6032 53.0098 49.5109 53.0098 51.5Z" fill="white"/>
<path d="M33.002 29C30.3498 29 27.8062 30.0536 25.9309 31.9289C24.0555 33.8043 23.002 36.3478 23.002 39V89C23.002 91.6522 24.0555 94.1957 25.9309 96.0711C27.8062 97.9464 30.3498 99 33.002 99H93.002C95.6541 99 98.1977 97.9464 100.073 96.0711C101.948 94.1957 103.002 91.6522 103.002 89V39C103.002 36.3478 101.948 33.8043 100.073 31.9289C98.1977 30.0536 95.6541 29 93.002 29H33.002ZM93.002 34C94.328 34 95.5998 34.5268 96.5375 35.4645C97.4752 36.4021 98.002 37.6739 98.002 39V71.5L79.117 61.765C78.6481 61.5301 78.1172 61.4486 77.5994 61.5321C77.0817 61.6155 76.6033 61.8597 76.232 62.23L57.682 80.78L44.382 71.92C43.9018 71.6003 43.3258 71.4565 42.7516 71.513C42.1775 71.5695 41.6406 71.8228 41.232 72.23L28.002 84V39C28.002 37.6739 28.5287 36.4021 29.4664 35.4645C30.4041 34.5268 31.6759 34 33.002 34H93.002Z" fill="white"/>
</g>
<rect x="76" y="68" width="60" height="60" rx="30" fill="#5C5A5A"/>
<path d="M106 83C106.497 83 106.974 83.1975 107.326 83.5492C107.677 83.9008 107.875 84.3777 107.875 84.875V96.125H119.125C119.622 96.125 120.099 96.3225 120.451 96.6742C120.802 97.0258 121 97.5027 121 98C121 98.4973 120.802 98.9742 120.451 99.3258C120.099 99.6775 119.622 99.875 119.125 99.875H107.875V111.125C107.875 111.622 107.677 112.099 107.326 112.451C106.974 112.802 106.497 113 106 113C105.503 113 105.026 112.802 104.674 112.451C104.323 112.099 104.125 111.622 104.125 111.125V99.875H92.875C92.3777 99.875 91.9008 99.6775 91.5492 99.3258C91.1975 98.9742 91 98.4973 91 98C91 97.5027 91.1975 97.0258 91.5492 96.6742C91.9008 96.3225 92.3777 96.125 92.875 96.125H104.125V84.875C104.125 84.3777 104.323 83.9008 104.674 83.5492C105.026 83.1975 105.503 83 106 83Z" fill="white"/>
<defs>
<clipPath id="clip0_41_66">
<rect width="80" height="80" fill="white" transform="translate(23 24)"/>
</clipPath>
</defs>
</svg>
