<svg width="70" height="70" viewBox="0 0 70 70" fill="none" xmlns="http://www.w3.org/2000/svg">
<path fill-rule="evenodd" clip-rule="evenodd" d="M54.6875 65.625C54.1073 65.625 53.5509 65.3945 53.1407 64.9843C52.7305 64.5741 52.5 64.0177 52.5 63.4375V6.5625C52.5 5.98234 52.7305 5.42594 53.1407 5.0157C53.5509 4.60547 54.1073 4.375 54.6875 4.375C55.2677 4.375 55.8241 4.60547 56.2343 5.0157C56.6445 5.42594 56.875 5.98234 56.875 6.5625V63.4375C56.875 64.0177 56.6445 64.5741 56.2343 64.9843C55.8241 65.3945 55.2677 65.625 54.6875 65.625ZM43.75 35C43.75 35.5802 43.5195 36.1366 43.1093 36.5468C42.6991 36.957 42.1427 37.1875 41.5625 37.1875H16.2181L25.6113 46.5762C25.8146 46.7796 25.976 47.0211 26.086 47.2868C26.1961 47.5526 26.2528 47.8374 26.2528 48.125C26.2528 48.4126 26.1961 48.6974 26.086 48.9632C25.976 49.2289 25.8146 49.4704 25.6113 49.6738C25.4079 49.8771 25.1664 50.0385 24.9007 50.1485C24.6349 50.2586 24.3501 50.3153 24.0625 50.3153C23.7749 50.3153 23.4901 50.2586 23.2243 50.1485C22.9586 50.0385 22.7171 49.8771 22.5138 49.6738L9.38875 36.5488C9.18504 36.3456 9.02342 36.1042 8.91314 35.8384C8.80286 35.5726 8.74609 35.2877 8.74609 35C8.74609 34.7123 8.80286 34.4274 8.91314 34.1616C9.02342 33.8958 9.18504 33.6544 9.38875 33.4513L22.5138 20.3263C22.9245 19.9155 23.4816 19.6847 24.0625 19.6847C24.6434 19.6847 25.2005 19.9155 25.6113 20.3263C26.022 20.737 26.2528 21.2941 26.2528 21.875C26.2528 22.4559 26.022 23.013 25.6113 23.4237L16.2181 32.8125H41.5625C42.1427 32.8125 42.6991 33.043 43.1093 33.4532C43.5195 33.8634 43.75 34.4198 43.75 35Z" fill="white"/>
</svg>
