<svg width="100" height="100" viewBox="0 0 100 100" fill="none" xmlns="http://www.w3.org/2000/svg">
<rect width="100" height="100" rx="20" fill="#FF0000"/>
<path d="M7.4375 28.3125C10.3542 28.3958 12.7708 28.4583 14.6875 28.5C16.6458 28.5 18.2292 28.5 19.4375 28.5H22.75H41.375C41.4583 29.3333 41.5208 30.1458 41.5625 30.9375C41.6458 31.6875 41.6875 32.3542 41.6875 32.9375C41.6875 33.6458 41.6667 34.2917 41.625 34.875C41.5833 35.4583 41.5208 36.0833 41.4375 36.75C41.3542 37.3333 41.2708 37.9583 41.1875 38.625C41.1042 39.2917 40.9583 39.9792 40.75 40.6875C40.1667 38.4375 39.375 36.7292 38.375 35.5625C37.4167 34.3958 36.4375 33.5417 35.4375 33C34.2708 32.375 33.0417 32.0417 31.75 32C30.0417 32.0833 28.7083 32.2292 27.75 32.4375C26.7917 32.6458 26.0417 32.9375 25.5 33.3125C24.9583 33.6875 24.5417 34.125 24.25 34.625C24 35.0833 23.7292 35.6042 23.4375 36.1875C23.1875 36.6875 22.9583 37.4583 22.75 38.5C22.5417 39.375 22.3333 40.5625 22.125 42.0625C21.9583 43.5625 21.7708 45.5 21.5625 47.875C22.6875 47.5417 23.5833 47.2292 24.25 46.9375C24.9583 46.6458 25.5208 46.3958 25.9375 46.1875C26.3958 45.9375 26.7292 45.7083 26.9375 45.5C27.1042 45.25 27.3542 44.7917 27.6875 44.125C27.9375 43.5417 28.2708 42.75 28.6875 41.75C29.1458 40.75 29.6875 39.375 30.3125 37.625C30.3958 39.5417 30.4375 41.1458 30.4375 42.4375C30.4375 43.6875 30.4583 44.7083 30.5 45.5C30.5 46.4167 30.5208 47.1458 30.5625 47.6875V50.0625C30.5625 50.9375 30.5625 52.125 30.5625 53.625C30.6042 55.0833 30.6667 56.9375 30.75 59.1875C30.25 57.6458 29.7917 56.4375 29.375 55.5625C29 54.6458 28.6667 53.9583 28.375 53.5C28.0417 52.9583 27.75 52.5833 27.5 52.375C27.2083 52.2917 26.8125 52.2083 26.3125 52.125C25.8542 52.0833 25.2708 52.0625 24.5625 52.0625C23.8958 52.0625 23.0417 52.1667 22 52.375C21.875 54.6667 21.8542 56.5208 21.9375 57.9375C22.0625 59.3125 22.2292 60.375 22.4375 61.125C22.6458 62 22.8958 62.625 23.1875 63C23.5625 63.375 24.3125 63.6875 25.4375 63.9375C26.5625 64.1458 27.8333 64.2292 29.25 64.1875C30.7083 64.1042 32.1875 63.8542 33.6875 63.4375C35.1875 63.0208 36.5208 62.3333 37.6875 61.375C38.5625 60.5833 39.5 59.5833 40.5 58.375C41.3333 57.3333 42.25 56.0208 43.25 54.4375C44.2917 52.8542 45.3125 50.9375 46.3125 48.6875C46.1458 50.5625 46.0208 52.125 45.9375 53.375C45.8958 54.5833 45.8333 55.5625 45.75 56.3125C45.6667 57.1875 45.6042 57.8542 45.5625 58.3125C45.5625 58.8125 45.5 59.5208 45.375 60.4375C45.2917 61.2292 45.1458 62.3125 44.9375 63.6875C44.7708 65.0208 44.5417 66.7292 44.25 68.8125C42.2917 68.8542 40.4375 68.8958 38.6875 68.9375C36.9375 68.9375 35.3958 68.9583 34.0625 69C32.4792 69.0417 31.0208 69.0833 29.6875 69.125C28.3125 69.125 26.7917 69.1875 25.125 69.3125C23.6667 69.3958 21.9375 69.5208 19.9375 69.6875C17.9792 69.8542 15.8125 70.0833 13.4375 70.375C13.6458 67.5417 13.7917 64.875 13.875 62.375C14 59.8333 14.0833 57.6042 14.125 55.6875C14.1667 53.4375 14.1667 51.3542 14.125 49.4375C14.3333 44.6458 14.25 40.7708 13.875 37.8125C13.5 34.8542 13.0625 32.9583 12.5625 32.125C12.3125 31.8333 11.9583 31.4792 11.5 31.0625C11.125 30.7292 10.6042 30.3333 9.9375 29.875C9.27083 29.4167 8.4375 28.8958 7.4375 28.3125ZM47.5625 27.875C50.0625 28.0833 52.25 28.2083 54.125 28.25C56.0417 28.2917 57.6667 28.3125 59 28.3125C60.5417 28.3125 61.875 28.2708 63 28.1875C64.1667 28.0625 65.6875 27.8958 67.5625 27.6875C69.1458 27.4792 71.1875 27.2083 73.6875 26.875C76.1875 26.5 79.2292 26.0208 82.8125 25.4375C82.3542 26.1458 81.9583 26.8958 81.625 27.6875C81.3333 28.4375 81.0833 29.125 80.875 29.75C80.6667 30.5 80.4792 31.2292 80.3125 31.9375C80.1875 32.7292 80.0417 33.7083 79.875 34.875C79.7083 35.875 79.5 37.1458 79.25 38.6875C79.0417 40.1875 78.7708 41.9792 78.4375 44.0625C77.1875 40.8125 75.9167 38.3125 74.625 36.5625C73.375 34.8125 72.2083 33.5208 71.125 32.6875C69.875 31.7292 68.6875 31.1875 67.5625 31.0625C65.9375 31.0625 64.6042 31.375 63.5625 32C62.5208 32.625 61.6667 33.4375 61 34.4375C60.375 35.3958 59.8958 36.4583 59.5625 37.625C59.2292 38.75 59 39.8542 58.875 40.9375C58.75 41.9792 58.6667 42.9167 58.625 43.75C58.5833 44.5417 58.5417 45.0833 58.5 45.375C59.9583 45.2917 61.1875 45.1875 62.1875 45.0625C63.1875 44.9375 63.9792 44.8125 64.5625 44.6875C65.2708 44.5208 65.8333 44.3542 66.25 44.1875C66.875 43.8542 67.5 43.4583 68.125 43C68.6667 42.5833 69.2292 42.0833 69.8125 41.5C70.4375 40.9167 70.9792 40.2083 71.4375 39.375C71.1875 40.875 70.9583 42.125 70.75 43.125C70.5833 44.125 70.4375 44.9167 70.3125 45.5C70.1458 46.2083 70.0417 46.75 70 47.125C69.9167 47.5 69.8125 48.0208 69.6875 48.6875C69.5625 49.2708 69.4167 50.0208 69.25 50.9375C69.0833 51.8542 68.8958 53 68.6875 54.375C68.1875 53.5 67.6667 52.7917 67.125 52.25C66.5833 51.6667 66.0833 51.2083 65.625 50.875C65.0833 50.5 64.5625 50.2083 64.0625 50C63.5208 49.8333 62.9375 49.6667 62.3125 49.5C61.7708 49.375 61.125 49.25 60.375 49.125C59.6667 48.9583 58.8958 48.8125 58.0625 48.6875C58.1458 50.9375 58.2708 52.875 58.4375 54.5C58.6042 56.0833 58.75 57.4167 58.875 58.5C59.0417 59.75 59.2083 60.7917 59.375 61.625C59.5833 62.4583 59.9167 63.3542 60.375 64.3125C60.75 65.1458 61.2708 66.1042 61.9375 67.1875C62.6458 68.2292 63.5417 69.3542 64.625 70.5625C63.7917 70.3542 62.9167 70.2083 62 70.125C61.0833 70.0417 60.2708 69.9792 59.5625 69.9375C58.6875 69.8958 57.8542 69.8958 57.0625 69.9375C56.2292 69.9792 55.3125 70.0625 54.3125 70.1875C53.4792 70.2708 52.5208 70.3958 51.4375 70.5625C50.3542 70.7292 49.2083 70.9167 48 71.125C48.7083 70.4167 49.2917 69.7083 49.75 69C50.2083 68.2917 50.5417 67.6667 50.75 67.125C51 66.5 51.1667 65.8958 51.25 65.3125C51.2917 64.8125 51.3125 63.7292 51.3125 62.0625C51.3125 60.3542 51.2917 58.375 51.25 56.125C51.2083 53.8333 51.1458 51.4167 51.0625 48.875C50.9792 46.3333 50.8958 43.9583 50.8125 41.75C50.7292 39.5 50.625 37.5833 50.5 36C50.4167 34.4167 50.3125 33.4583 50.1875 33.125C50.0208 32.7083 49.8333 32.2292 49.625 31.6875C49.2917 30.8125 48.6042 29.5417 47.5625 27.875Z" fill="white"/>
</svg>
