<svg width="55" height="55" viewBox="0 0 55 55" fill="none" xmlns="http://www.w3.org/2000/svg">
<g clip-path="url(#clip0_41_302)">
<path d="M41.8206 30.7312C40.0194 34.3819 37.5788 38.0187 35.0831 41.2844C32.7131 44.361 30.1819 47.3099 27.5 50.1188C24.8181 47.3099 22.2869 44.361 19.9169 41.2844C17.4213 38.0187 14.9806 34.3819 13.1794 30.7312C11.3575 27.0428 10.3125 23.5881 10.3125 20.625C10.3125 16.0666 12.1233 11.6949 15.3466 8.4716C18.5699 5.24832 22.9416 3.4375 27.5 3.4375C32.0584 3.4375 36.4301 5.24832 39.6534 8.4716C42.8767 11.6949 44.6875 16.0666 44.6875 20.625C44.6875 23.5881 43.6391 27.0428 41.8206 30.7312ZM27.5 55C27.5 55 48.125 35.4544 48.125 20.625C48.125 15.1549 45.952 9.90886 42.0841 6.04092C38.2161 2.17298 32.9701 0 27.5 0C22.0299 0 16.7839 2.17298 12.9159 6.04092C9.04798 9.90886 6.875 15.1549 6.875 20.625C6.875 35.4544 27.5 55 27.5 55Z" fill="white"/>
<path d="M27.5 27.5C25.6766 27.5 23.928 26.7757 22.6386 25.4864C21.3493 24.197 20.625 22.4484 20.625 20.625C20.625 18.8016 21.3493 17.053 22.6386 15.7636C23.928 14.4743 25.6766 13.75 27.5 13.75C29.3234 13.75 31.072 14.4743 32.3614 15.7636C33.6507 17.053 34.375 18.8016 34.375 20.625C34.375 22.4484 33.6507 24.197 32.3614 25.4864C31.072 26.7757 29.3234 27.5 27.5 27.5ZM27.5 30.9375C30.235 30.9375 32.8581 29.851 34.792 27.917C36.726 25.9831 37.8125 23.36 37.8125 20.625C37.8125 17.89 36.726 15.2669 34.792 13.333C32.8581 11.399 30.235 10.3125 27.5 10.3125C24.765 10.3125 22.1419 11.399 20.208 13.333C18.274 15.2669 17.1875 17.89 17.1875 20.625C17.1875 23.36 18.274 25.9831 20.208 27.917C22.1419 29.851 24.765 30.9375 27.5 30.9375Z" fill="white"/>
</g>
<defs>
<clipPath id="clip0_41_302">
<rect width="55" height="55" fill="white"/>
</clipPath>
</defs>
</svg>
