<svg width="39" height="39" viewBox="0 0 39 39" fill="none" xmlns="http://www.w3.org/2000/svg">
<g clip-path="url(#clip0_41_299)">
<path d="M28.6211 25.2134C30.9814 21.9927 32.0385 17.9996 31.581 14.0329C31.1235 10.0663 29.1852 6.41864 26.1538 3.81976C23.1224 1.22087 19.2215 -0.137588 15.2316 0.0161532C11.2416 0.169894 7.45678 1.8245 4.63436 4.64894C1.81194 7.47338 0.160045 11.2594 0.00915918 15.2494C-0.141727 19.2395 1.21953 23.1395 3.82058 26.169C6.42163 29.1985 10.0707 31.1342 14.0376 31.5889C18.0046 32.0435 21.997 30.9835 25.216 28.621H25.2135C25.285 28.7185 25.3646 28.8119 25.4524 28.9013L34.8368 38.2857C35.2938 38.7431 35.9138 39.0001 36.5604 39.0004C37.207 39.0006 37.8272 38.744 38.2846 38.2869C38.742 37.8299 38.9991 37.2098 38.9993 36.5632C38.9995 35.9166 38.7429 35.2964 38.2858 34.8391L28.9015 25.4547C28.8144 25.3664 28.7206 25.2874 28.6211 25.2134ZM29.25 15.8436C29.25 17.6042 28.9033 19.3475 28.2295 20.974C27.5558 22.6005 26.5683 24.0784 25.3234 25.3233C24.0785 26.5682 22.6006 27.5557 20.9741 28.2294C19.3476 28.9031 17.6043 29.2499 15.8438 29.2499C14.0832 29.2499 12.3399 28.9031 10.7134 28.2294C9.0869 27.5557 7.60901 26.5682 6.36412 25.3233C5.11924 24.0784 4.13174 22.6005 3.45801 20.974C2.78428 19.3475 2.43752 17.6042 2.43752 15.8436C2.43752 12.2881 3.84996 8.87814 6.36412 6.36398C8.87828 3.84982 12.2882 2.43738 15.8438 2.43738C19.3993 2.43738 22.8093 3.84982 25.3234 6.36398C27.8376 8.87814 29.25 12.2881 29.25 15.8436Z" fill="white"/>
</g>
<defs>
<clipPath id="clip0_41_299">
<rect width="39" height="39" fill="white"/>
</clipPath>
</defs>
</svg>
